<?xml version="1.0" encoding="UTF-8"?>
<!-- Generated by Pixelmator Pro 4.2 -->
<svg width="680" height="200" viewBox="0 0 680 200" xmlns="http://www.w3.org/2000/svg">
    <g id="Groupe">
        <path id="Trac" fill="none" stroke="#1b2a5e" stroke-width="10" d="M 405 100 C 405 136.45079 434.549194 166 471 166 C 507.450806 166 537 136.45079 537 100 C 537 63.54921 507.450806 34 471 34 C 434.549194 34 405 63.54921 405 100 Z"/>
        <path id="path1" fill="none" stroke="#1b2a5e" stroke-width="9" stroke-linecap="round" stroke-linejoin="round" d="M 511 120 L 503 82 C 481.666656 75.333328 460.333344 75.333328 439 82 L 431 120 Z"/>
        <path id="path2" fill="none" stroke="#1b2a5e" stroke-width="6" stroke-linecap="round" d="M 484 108 C 475.333344 114 466.666656 114 458 108"/>
        <path id="path3" fill="#c8102e" stroke="none" d="M 414 74 C 414 77.865997 417.134003 81 421 81 C 424.865997 81 428 77.865997 428 74 C 428 70.134003 424.865997 67 421 67 C 417.134003 67 414 70.134003 414 74 Z"/>
        <text id="Zen-Glass" xml:space="preserve" x="147.529297" y="123" font-family="Helvetica" font-size="52" fill="#1b2a5e" letter-spacing="-0.5">Zen Glass</text>
    </g>
</svg>
